<svg xmlns="http://www.w3.org/2000/svg" xmlns:xlink="http://www.w3.org/1999/xlink" width="500" zoomAndPan="magnify" viewBox="0 0 375 374.999991" height="500" preserveAspectRatio="xMidYMid meet" version="1.0"><defs><g/><clipPath id="7c7db4b502"><rect x="0" width="222" y="0" height="194"/></clipPath><clipPath id="51b3b1f4db"><rect x="0" width="76" y="0" height="19"/></clipPath><clipPath id="57c1e2e96b"><rect x="0" width="139" y="0" height="43"/></clipPath><clipPath id="0e65a03acd"><rect x="0" width="178" y="0" height="356"/></clipPath></defs><g transform="matrix(1, 0, 0, 1, 130, 94)"><g clip-path="url(#7c7db4b502)"><g fill="#079669" fill-opacity="1"><g transform="translate(2.11045, 144.739149)"><g><path d="M 72.46875 -58.203125 L 71.5 -58.203125 C 71.632812 -61.421875 70.640625 -64.957031 68.515625 -68.8125 C 66.398438 -72.664062 63.570312 -76.289062 60.03125 -79.6875 C 56.5 -83.09375 52.613281 -85.820312 48.375 -87.875 C 44.132812 -89.9375 39.894531 -90.867188 35.65625 -90.671875 C 31.414062 -90.484375 27.5625 -88.59375 24.09375 -85 C 21.394531 -82.300781 20.140625 -79.117188 20.328125 -75.453125 C 20.523438 -71.796875 22.035156 -68.488281 24.859375 -65.53125 C 27.046875 -63.34375 30.289062 -61.15625 34.59375 -58.96875 C 38.894531 -56.789062 44.582031 -54.800781 51.65625 -53 C 56.925781 -51.582031 61.359375 -49.910156 64.953125 -47.984375 C 68.546875 -46.054688 71.5 -44.003906 73.8125 -41.828125 C 77.539062 -38.097656 79.722656 -33.921875 80.359375 -29.296875 C 81.003906 -24.671875 80.046875 -20.046875 77.484375 -15.421875 C 74.785156 -10.660156 71.378906 -7.125 67.265625 -4.8125 C 63.148438 -2.113281 58.265625 -0.1875 52.609375 0.96875 C 46.960938 2.125 41.695312 2.570312 36.8125 2.3125 C 32.1875 1.925781 27.332031 0.898438 22.25 -0.765625 C 17.175781 -2.441406 11.878906 -4.882812 6.359375 -8.09375 L 4.8125 -9.0625 L 9.4375 -30.453125 L 10.984375 -30.0625 C 10.722656 -28.519531 11.234375 -26.460938 12.515625 -23.890625 C 13.804688 -21.328125 15.351562 -18.820312 17.15625 -16.375 C 18.957031 -13.9375 20.4375 -12.203125 21.59375 -11.171875 C 24.15625 -8.734375 27.007812 -6.742188 30.15625 -5.203125 C 33.3125 -3.660156 36.492188 -2.566406 39.703125 -1.921875 C 42.910156 -1.285156 46.085938 -1.03125 49.234375 -1.15625 C 52.390625 -1.28125 55.378906 -1.726562 58.203125 -2.5 C 59.742188 -2.882812 61.1875 -3.363281 62.53125 -3.9375 C 63.882812 -4.519531 65.207031 -5.195312 66.5 -5.96875 C 67.90625 -7 69.0625 -7.960938 69.96875 -8.859375 C 70.863281 -9.890625 71.664062 -10.984375 72.375 -12.140625 C 73.082031 -13.296875 73.5625 -14.515625 73.8125 -15.796875 C 73.945312 -16.703125 73.976562 -17.632812 73.90625 -18.59375 C 73.84375 -19.5625 73.6875 -20.492188 73.4375 -21.390625 C 72.28125 -24.734375 70.0625 -27.398438 66.78125 -29.390625 C 63.507812 -31.378906 59.75 -33.015625 55.5 -34.296875 C 51.257812 -35.585938 46.957031 -36.875 42.59375 -38.15625 C 36.425781 -39.957031 31.03125 -42.492188 26.40625 -45.765625 C 21.78125 -49.046875 18.34375 -52.867188 16.09375 -57.234375 C 13.84375 -61.609375 13.164062 -66.234375 14.0625 -71.109375 C 14.96875 -75.992188 17.925781 -80.941406 22.9375 -85.953125 C 26.28125 -89.421875 30.648438 -91.601562 36.046875 -92.5 C 41.441406 -93.40625 47 -93.375 52.71875 -92.40625 C 58.4375 -91.445312 63.539062 -89.875 68.03125 -87.6875 C 72.53125 -85.507812 75.613281 -83.003906 77.28125 -80.171875 Z M 72.46875 -58.203125 "/></g></g></g><g fill="#079669" fill-opacity="1"><g transform="translate(82.856748, 144.739149)"><g><path d="M 27.375 -1.734375 L 27.375 0 L 5.015625 0 L 5.015625 -1.734375 C 5.648438 -1.734375 6.546875 -2.628906 7.703125 -4.421875 C 8.859375 -6.222656 9.4375 -10.273438 9.4375 -16.578125 L 9.4375 -122.578125 C 8.925781 -125.921875 8.253906 -128.101562 7.421875 -129.125 C 6.585938 -130.15625 5.910156 -130.671875 5.390625 -130.671875 L 4.8125 -132.40625 L 22.9375 -139.15625 L 22.9375 -16.578125 C 22.9375 -10.273438 23.546875 -6.222656 24.765625 -4.421875 C 25.984375 -2.628906 26.851562 -1.734375 27.375 -1.734375 Z M 27.375 -1.734375 "/></g></g></g><g fill="#079669" fill-opacity="1"><g transform="translate(110.221567, 144.739149)"><g><path d="M 6.546875 -35.265625 C 4.367188 -43.742188 4.367188 -51.96875 6.546875 -59.9375 C 8.734375 -67.90625 12.75 -74.875 18.59375 -80.84375 C 24.445312 -86.820312 31.546875 -90.90625 39.890625 -93.09375 C 46.316406 -94.882812 52.613281 -95.296875 58.78125 -94.328125 C 64.945312 -93.367188 70.601562 -91.414062 75.75 -88.46875 L 82.109375 -90.203125 C 87.890625 -91.742188 92.320312 -93.253906 95.40625 -94.734375 C 98.488281 -96.210938 100.671875 -97.5625 101.953125 -98.78125 C 103.242188 -100 103.984375 -100.992188 104.171875 -101.765625 C 104.367188 -102.535156 104.46875 -102.984375 104.46875 -103.109375 L 104.46875 -103.3125 L 106.203125 -103.6875 L 107.9375 -96.5625 L 108.3125 -94.828125 L 110.046875 -87.6875 L 108.3125 -87.3125 C 108.3125 -87.3125 107.734375 -87.757812 106.578125 -88.65625 C 105.421875 -89.550781 103.269531 -90.222656 100.125 -90.671875 C 96.976562 -91.128906 92.253906 -90.648438 85.953125 -89.234375 L 77.859375 -87.3125 C 82.617188 -84.226562 86.734375 -80.335938 90.203125 -75.640625 C 93.671875 -70.953125 96.238281 -65.65625 97.90625 -59.75 C 100.09375 -51.65625 100.15625 -43.71875 98.09375 -35.9375 C 96.039062 -28.164062 92.316406 -21.320312 86.921875 -15.40625 C 81.523438 -9.5 74.910156 -5.265625 67.078125 -2.703125 C 63.992188 -1.410156 60.363281 -0.476562 56.1875 0.09375 C 52.007812 0.675781 47.703125 1.222656 43.265625 1.734375 C 38.835938 2.242188 34.789062 3.046875 31.125 4.140625 C 27.46875 5.234375 24.578125 6.835938 22.453125 8.953125 C 20.335938 11.078125 19.535156 14.003906 20.046875 17.734375 C 20.554688 21.203125 22 23.546875 24.375 24.765625 C 26.757812 25.984375 29.6875 26.335938 33.15625 25.828125 C 36.625 25.316406 40.347656 24.289062 44.328125 22.75 C 48.304688 21.207031 52.160156 19.46875 55.890625 17.53125 C 59.617188 15.601562 62.925781 13.804688 65.8125 12.140625 C 68.707031 10.472656 70.734375 9.253906 71.890625 8.484375 C 76.003906 5.910156 80.144531 3.5625 84.3125 1.4375 C 88.488281 -0.675781 92.25 -1.925781 95.59375 -2.3125 C 100.09375 -2.957031 103.398438 -1.960938 105.515625 0.671875 C 107.640625 3.304688 108.734375 6.613281 108.796875 10.59375 C 108.859375 14.582031 107.863281 18.472656 105.8125 22.265625 C 103.757812 26.054688 100.675781 28.914062 96.5625 30.84375 C 92.570312 32.632812 88.164062 33.273438 83.34375 32.765625 C 78.53125 32.253906 73.90625 30.90625 69.46875 28.71875 C 65.039062 26.53125 61.222656 23.894531 58.015625 20.8125 L 58.984375 19.859375 C 65.015625 24.609375 70.664062 27.878906 75.9375 29.671875 C 81.207031 31.472656 85.703125 31.285156 89.421875 29.109375 C 91.734375 27.816406 93.691406 25.660156 95.296875 22.640625 C 96.910156 19.617188 97.910156 16.535156 98.296875 13.390625 C 98.679688 10.242188 98.164062 7.640625 96.75 5.578125 C 95.332031 3.523438 92.695312 2.660156 88.84375 2.984375 C 84.988281 3.304688 79.59375 5.523438 72.65625 9.640625 C 70.601562 10.921875 67.773438 12.6875 64.171875 14.9375 C 60.578125 17.1875 56.59375 19.46875 52.21875 21.78125 C 47.851562 24.09375 43.421875 26.113281 38.921875 27.84375 C 34.429688 29.582031 30.160156 30.644531 26.109375 31.03125 C 22.066406 31.414062 18.628906 30.738281 15.796875 29 C 12.972656 27.269531 11.113281 24.09375 10.21875 19.46875 C 9.445312 15.09375 10.410156 11.648438 13.109375 9.140625 C 15.804688 6.640625 19.304688 4.78125 23.609375 3.5625 C 27.910156 2.34375 32.3125 1.472656 36.8125 0.953125 C 41.3125 0.441406 45.101562 -0.00390625 48.1875 -0.390625 C 41.757812 -1.023438 35.71875 -2.851562 30.0625 -5.875 C 24.414062 -8.894531 19.535156 -12.910156 15.421875 -17.921875 C 11.304688 -22.929688 8.347656 -28.710938 6.546875 -35.265625 Z M 84.796875 -56.28125 C 83.515625 -60.90625 81.523438 -65.625 78.828125 -70.4375 C 76.128906 -75.257812 72.820312 -79.53125 68.90625 -83.25 C 64.988281 -86.976562 60.585938 -89.707031 55.703125 -91.4375 C 50.816406 -93.175781 45.675781 -93.273438 40.28125 -91.734375 C 34.882812 -90.328125 30.515625 -87.660156 27.171875 -83.734375 C 23.835938 -79.816406 21.429688 -75.253906 19.953125 -70.046875 C 18.472656 -64.847656 17.734375 -59.484375 17.734375 -53.953125 C 17.734375 -48.429688 18.375 -43.359375 19.65625 -38.734375 C 20.945312 -34.109375 22.941406 -29.382812 25.640625 -24.5625 C 28.335938 -19.75 31.644531 -15.476562 35.5625 -11.75 C 39.476562 -8.03125 43.84375 -5.300781 48.65625 -3.5625 C 53.476562 -1.832031 58.585938 -1.738281 63.984375 -3.28125 C 69.378906 -4.6875 73.75 -7.347656 77.09375 -11.265625 C 80.4375 -15.191406 82.878906 -19.753906 84.421875 -24.953125 C 85.960938 -30.160156 86.734375 -35.523438 86.734375 -41.046875 C 86.734375 -46.578125 86.085938 -51.65625 84.796875 -56.28125 Z M 84.796875 -56.28125 "/></g></g></g></g></g><g transform="matrix(1, 0, 0, 1, 161, 284)"><g clip-path="url(#51b3b1f4db)"><g fill="#079669" fill-opacity="1"><g transform="translate(0.828919, 14.824765)"><g><path d="M 2.953125 0 L 0.953125 0 L 0.953125 -10.640625 L 3.203125 -10.640625 L 7.578125 -3.03125 L 7.578125 -10.640625 L 9.578125 -10.640625 L 9.578125 0 L 7.3125 0 L 2.953125 -7.625 Z M 2.953125 0 "/></g></g></g><g fill="#079669" fill-opacity="1"><g transform="translate(10.683088, 14.824765)"><g><path d="M 8.046875 0 L 0.953125 0 L 0.953125 -10.640625 L 8.046875 -10.640625 L 8.046875 -8.84375 L 2.953125 -8.84375 L 2.953125 -6.21875 L 7.515625 -6.21875 L 7.515625 -4.4375 L 2.953125 -4.4375 L 2.953125 -1.796875 L 8.046875 -1.796875 Z M 8.046875 0 "/></g></g></g><g fill="#079669" fill-opacity="1"><g transform="translate(18.66693, 14.824765)"><g><path d="M 6 0 L 2.984375 0 L 0.203125 -10.640625 L 2.3125 -10.640625 L 4.5 -1.8125 L 6.484375 -10.640625 L 9.046875 -10.640625 L 11.015625 -1.796875 L 13.21875 -10.640625 L 15.328125 -10.640625 L 12.53125 0 L 9.53125 0 L 7.765625 -8.25 Z M 6 0 "/></g></g></g><g fill="#079669" fill-opacity="1"><g transform="translate(33.504028, 14.824765)"><g/></g></g><g fill="#079669" fill-opacity="1"><g transform="translate(36.560777, 14.824765)"><g><path d="M 5.9375 0 L 3.84375 0 L 3.84375 -4.171875 L -0.046875 -10.640625 L 2.296875 -10.640625 L 4.890625 -6.125 L 7.484375 -10.640625 L 9.8125 -10.640625 L 5.9375 -4.171875 Z M 5.9375 0 "/></g></g></g><g fill="#079669" fill-opacity="1"><g transform="translate(45.647271, 14.824765)"><g><path d="M 5.703125 0.203125 C 4.828125 0.203125 4.0625 0.0507812 3.40625 -0.25 C 2.757812 -0.550781 2.222656 -0.957031 1.796875 -1.46875 C 1.378906 -1.976562 1.066406 -2.566406 0.859375 -3.234375 C 0.648438 -3.898438 0.546875 -4.597656 0.546875 -5.328125 C 0.546875 -6.066406 0.648438 -6.765625 0.859375 -7.421875 C 1.066406 -8.085938 1.378906 -8.675781 1.796875 -9.1875 C 2.222656 -9.707031 2.757812 -10.113281 3.40625 -10.40625 C 4.0625 -10.695312 4.828125 -10.84375 5.703125 -10.84375 C 6.585938 -10.84375 7.351562 -10.695312 8 -10.40625 C 8.65625 -10.113281 9.191406 -9.707031 9.609375 -9.1875 C 10.035156 -8.675781 10.351562 -8.085938 10.5625 -7.421875 C 10.78125 -6.765625 10.890625 -6.066406 10.890625 -5.328125 C 10.890625 -4.597656 10.78125 -3.898438 10.5625 -3.234375 C 10.351562 -2.566406 10.035156 -1.976562 9.609375 -1.46875 C 9.191406 -0.957031 8.65625 -0.550781 8 -0.25 C 7.351562 0.0507812 6.585938 0.203125 5.703125 0.203125 Z M 5.703125 -1.609375 C 6.367188 -1.609375 6.925781 -1.765625 7.375 -2.078125 C 7.832031 -2.390625 8.179688 -2.828125 8.421875 -3.390625 C 8.671875 -3.953125 8.796875 -4.597656 8.796875 -5.328125 C 8.796875 -6.066406 8.671875 -6.710938 8.421875 -7.265625 C 8.179688 -7.816406 7.832031 -8.25 7.375 -8.5625 C 6.925781 -8.875 6.367188 -9.03125 5.703125 -9.03125 C 5.066406 -9.03125 4.515625 -8.875 4.046875 -8.5625 C 3.585938 -8.25 3.238281 -7.816406 3 -7.265625 C 2.757812 -6.710938 2.640625 -6.066406 2.640625 -5.328125 C 2.640625 -4.597656 2.757812 -3.953125 3 -3.390625 C 3.238281 -2.828125 3.585938 -2.390625 4.046875 -2.078125 C 4.515625 -1.765625 5.066406 -1.609375 5.703125 -1.609375 Z M 5.703125 -1.609375 "/></g></g></g><g fill="#079669" fill-opacity="1"><g transform="translate(56.408703, 14.824765)"><g><path d="M 7.234375 -4.625 L 9.15625 0 L 7.015625 0 L 5.328125 -4.25 L 2.953125 -4.25 L 2.953125 0 L 0.953125 0 L 0.953125 -10.640625 L 5.546875 -10.640625 C 6.210938 -10.640625 6.796875 -10.53125 7.296875 -10.3125 C 7.804688 -10.09375 8.203125 -9.753906 8.484375 -9.296875 C 8.773438 -8.835938 8.921875 -8.238281 8.921875 -7.5 C 8.921875 -6.800781 8.769531 -6.207031 8.46875 -5.71875 C 8.164062 -5.226562 7.753906 -4.863281 7.234375 -4.625 Z M 5.265625 -8.84375 L 2.953125 -8.84375 L 2.953125 -6.015625 L 5.265625 -6.015625 C 5.796875 -6.015625 6.203125 -6.132812 6.484375 -6.375 C 6.773438 -6.613281 6.921875 -6.96875 6.921875 -7.4375 C 6.921875 -7.894531 6.773438 -8.242188 6.484375 -8.484375 C 6.203125 -8.722656 5.796875 -8.84375 5.265625 -8.84375 Z M 5.265625 -8.84375 "/></g></g></g><g fill="#079669" fill-opacity="1"><g transform="translate(65.341658, 14.824765)"><g><path d="M 2.953125 0 L 0.953125 0 L 0.953125 -10.640625 L 2.953125 -10.640625 L 2.953125 -5.921875 L 6.71875 -10.640625 L 9.171875 -10.640625 L 4.921875 -5.515625 L 9.3125 0 L 6.8125 0 L 2.953125 -4.9375 Z M 2.953125 0 "/></g></g></g></g></g><g transform="matrix(1, 0, 0, 1, 96, 244)"><g clip-path="url(#57c1e2e96b)"><g fill="#079669" fill-opacity="1"><g transform="translate(0.609825, 34.054681)"><g><path d="M 19.765625 0 L 2.328125 0 L 2.328125 -26.125 L 19.765625 -26.125 L 19.765625 -21.71875 L 7.265625 -21.71875 L 7.265625 -15.28125 L 18.453125 -15.28125 L 18.453125 -10.890625 L 7.265625 -10.890625 L 7.265625 -4.421875 L 19.765625 -4.421875 Z M 19.765625 0 "/></g></g></g><g fill="#079669" fill-opacity="1"><g transform="translate(21.872805, 34.054681)"><g><path d="M 14.734375 0 L 9.3125 0 L 0.109375 -26.125 L 5.28125 -26.125 L 12.015625 -5.40625 L 18.765625 -26.125 L 23.9375 -26.125 Z M 14.734375 0 "/></g></g></g><g fill="#079669" fill-opacity="1"><g transform="translate(45.909221, 34.054681)"><g><path d="M 19.765625 0 L 2.328125 0 L 2.328125 -26.125 L 19.765625 -26.125 L 19.765625 -21.71875 L 7.265625 -21.71875 L 7.265625 -15.28125 L 18.453125 -15.28125 L 18.453125 -10.890625 L 7.265625 -10.890625 L 7.265625 -4.421875 L 19.765625 -4.421875 Z M 19.765625 0 "/></g></g></g><g fill="#079669" fill-opacity="1"><g transform="translate(67.1722, 34.054681)"><g><path d="M 7.265625 0 L 2.328125 0 L 2.328125 -26.125 L 7.875 -26.125 L 18.59375 -7.4375 L 18.59375 -26.125 L 23.53125 -26.125 L 23.53125 0 L 17.953125 0 L 7.265625 -18.734375 Z M 7.265625 0 "/></g></g></g><g fill="#079669" fill-opacity="1"><g transform="translate(93.02332, 34.054681)"><g><path d="M 13.25 0 L 8.328125 0 L 8.328125 -21.71875 L 0.34375 -21.71875 L 0.34375 -26.125 L 21.203125 -26.125 L 21.203125 -21.71875 L 13.25 -21.71875 Z M 13.25 0 "/></g></g></g><g fill="#079669" fill-opacity="1"><g transform="translate(114.594459, 34.054681)"><g><path d="M 12.703125 0.484375 C 11.453125 0.484375 10.179688 0.328125 8.890625 0.015625 C 7.597656 -0.285156 6.40625 -0.78125 5.3125 -1.46875 C 4.21875 -2.15625 3.296875 -3.070312 2.546875 -4.21875 C 1.804688 -5.375 1.359375 -6.800781 1.203125 -8.5 L 6.296875 -8.5 C 6.597656 -7.257812 7.078125 -6.289062 7.734375 -5.59375 C 8.398438 -4.90625 9.171875 -4.421875 10.046875 -4.140625 C 10.929688 -3.867188 11.828125 -3.734375 12.734375 -3.734375 C 14.085938 -3.734375 15.21875 -4.019531 16.125 -4.59375 C 17.039062 -5.164062 17.5 -6.078125 17.5 -7.328125 C 17.5 -8.242188 17.203125 -8.953125 16.609375 -9.453125 C 16.015625 -9.953125 15.242188 -10.34375 14.296875 -10.625 C 13.347656 -10.914062 12.316406 -11.175781 11.203125 -11.40625 C 10.128906 -11.65625 9.054688 -11.925781 7.984375 -12.21875 C 6.910156 -12.519531 5.921875 -12.929688 5.015625 -13.453125 C 4.117188 -13.984375 3.398438 -14.6875 2.859375 -15.5625 C 2.328125 -16.445312 2.0625 -17.570312 2.0625 -18.9375 C 2.0625 -20.625 2.460938 -22.03125 3.265625 -23.15625 C 4.078125 -24.289062 5.179688 -25.148438 6.578125 -25.734375 C 7.972656 -26.316406 9.546875 -26.609375 11.296875 -26.609375 C 12.992188 -26.609375 14.582031 -26.3125 16.0625 -25.71875 C 17.550781 -25.125 18.804688 -24.222656 19.828125 -23.015625 C 20.859375 -21.804688 21.507812 -20.253906 21.78125 -18.359375 L 16.75 -18.359375 C 16.425781 -19.753906 15.753906 -20.773438 14.734375 -21.421875 C 13.722656 -22.078125 12.546875 -22.40625 11.203125 -22.40625 C 9.960938 -22.40625 8.941406 -22.144531 8.140625 -21.625 C 7.347656 -21.113281 6.953125 -20.351562 6.953125 -19.34375 C 6.953125 -18.550781 7.226562 -17.925781 7.78125 -17.46875 C 8.34375 -17.007812 9.082031 -16.648438 10 -16.390625 C 10.914062 -16.128906 11.898438 -15.875 12.953125 -15.625 C 14.046875 -15.394531 15.144531 -15.113281 16.25 -14.78125 C 17.351562 -14.445312 18.378906 -14 19.328125 -13.4375 C 20.273438 -12.882812 21.035156 -12.140625 21.609375 -11.203125 C 22.179688 -10.265625 22.46875 -9.050781 22.46875 -7.5625 C 22.46875 -5.101562 21.609375 -3.144531 19.890625 -1.6875 C 18.179688 -0.238281 15.785156 0.484375 12.703125 0.484375 Z M 12.703125 0.484375 "/></g></g></g></g></g><g transform="matrix(1, 0, 0, 1, 9, 4)"><g clip-path="url(#0e65a03acd)"><g fill="#079669" fill-opacity="1"><g transform="translate(9.150606, 238.061725)"><g><path d="M -7.9375 -149.546875 L 20.03125 -168.265625 C 21.207031 -168.984375 22.269531 -169.34375 23.21875 -169.34375 C 24.164062 -169.34375 24.992188 -169.082031 25.703125 -168.5625 C 26.421875 -168.050781 27.234375 -167.203125 28.140625 -166.015625 C 29.046875 -164.828125 29.582031 -164.15625 29.75 -164 C 55.582031 -133.351562 75.488281 -102.941406 89.46875 -72.765625 C 91.519531 -76.160156 94.835938 -81.3125 99.421875 -88.21875 C 104.003906 -95.132812 107.578125 -100.703125 110.140625 -104.921875 C 112.710938 -109.148438 115.125 -114.460938 117.375 -120.859375 C 119.625 -127.265625 120.75 -133.46875 120.75 -139.46875 C 120.75 -142.238281 120.515625 -145.046875 120.046875 -147.890625 L 162.46875 -170.875 L 102.5 -74.65625 C 96.414062 -66.125 93.375 -53.757812 93.375 -37.5625 C 93.375 -34.007812 93.53125 -28.875 93.84375 -22.15625 C 94.164062 -15.445312 94.363281 -10.90625 94.4375 -8.53125 L 67.78125 11.375 L 67.78125 -6.515625 C 67.78125 -21.441406 66.789062 -35.125 64.8125 -47.5625 C 62.84375 -60.007812 58.894531 -71.726562 52.96875 -82.71875 C 50.039062 -88.800781 46.816406 -94.585938 43.296875 -100.078125 C 39.785156 -105.566406 35.503906 -111.332031 30.453125 -117.375 C 25.398438 -123.414062 21.585938 -127.859375 19.015625 -130.703125 C 16.453125 -133.546875 11.96875 -138.40625 5.5625 -145.28125 C 3.195312 -147.332031 1.222656 -148.359375 -0.359375 -148.359375 C -0.910156 -148.359375 -1.71875 -148.160156 -2.78125 -147.765625 C -3.851562 -147.367188 -4.703125 -147.171875 -5.328125 -147.171875 Z M -7.9375 -149.546875 "/></g></g></g></g></g></svg>